<svg width="142" height="36" viewBox="0 0 142 36" fill="none" xmlns="http://www.w3.org/2000/svg">
<path d="M27.1093 7.18182V29H22.1661L14.2826 17.5369H14.1547V29H8.23145V7.18182H13.2599L21.0155 18.6023H21.186V7.18182H27.1093ZM37.8799 29.2983C36.1043 29.2983 34.5844 28.9467 33.3202 28.2436C32.056 27.5334 31.0866 26.5462 30.4118 25.282C29.7371 24.0107 29.3998 22.5369 29.3998 20.8608C29.3998 19.1847 29.7371 17.7145 30.4118 16.4503C31.0866 15.179 32.056 14.1918 33.3202 13.4886C34.5844 12.7784 36.1043 12.4233 37.8799 12.4233C39.6555 12.4233 41.1753 12.7784 42.4395 13.4886C43.7037 14.1918 44.6732 15.179 45.3479 16.4503C46.0226 17.7145 46.36 19.1847 46.36 20.8608C46.36 22.5369 46.0226 24.0107 45.3479 25.282C44.6732 26.5462 43.7037 27.5334 42.4395 28.2436C41.1753 28.9467 39.6555 29.2983 37.8799 29.2983ZM37.9225 24.9517C38.4197 24.9517 38.8493 24.7848 39.2116 24.451C39.5738 24.1172 39.8543 23.6413 40.0532 23.0234C40.252 22.4055 40.3515 21.6705 40.3515 20.8182C40.3515 19.9588 40.252 19.2237 40.0532 18.6129C39.8543 17.995 39.5738 17.5192 39.2116 17.1854C38.8493 16.8516 38.4197 16.6847 37.9225 16.6847C37.3969 16.6847 36.9459 16.8516 36.5695 17.1854C36.1931 17.5192 35.9055 17.995 35.7066 18.6129C35.5077 19.2237 35.4083 19.9588 35.4083 20.8182C35.4083 21.6705 35.5077 22.4055 35.7066 23.0234C35.9055 23.6413 36.1931 24.1172 36.5695 24.451C36.9459 24.7848 37.3969 24.9517 37.9225 24.9517ZM64.7398 12.6364L59.2426 29H52.4244L46.9273 12.6364H53.1063L55.7483 23.4602H55.9188L58.5608 12.6364H64.7398ZM70.5619 29.2557C69.5178 29.2557 68.5945 29.0852 67.792 28.7443C66.9965 28.3963 66.3715 27.8707 65.917 27.1676C65.4624 26.4645 65.2352 25.5696 65.2352 24.483C65.2352 23.5881 65.3879 22.8246 65.6933 22.1925C65.9987 21.5533 66.4248 21.0312 66.9717 20.6264C67.5186 20.2216 68.1542 19.9126 68.8786 19.6996C69.6102 19.4865 70.3985 19.348 71.2437 19.2841C72.1599 19.2131 72.895 19.1278 73.449 19.0284C74.01 18.9219 74.4149 18.7763 74.6634 18.5916C74.912 18.3999 75.0363 18.1477 75.0363 17.8352V17.7926C75.0363 17.3665 74.873 17.0398 74.5463 16.8125C74.2195 16.5852 73.8005 16.4716 73.2892 16.4716C72.7281 16.4716 72.27 16.5959 71.9149 16.8445C71.5669 17.0859 71.3573 17.4588 71.2863 17.9631H65.8744C65.9454 16.9687 66.2615 16.0526 66.8225 15.2145C67.3907 14.3693 68.2181 13.6946 69.3048 13.1903C70.3914 12.679 71.748 12.4233 73.3744 12.4233C74.5463 12.4233 75.5974 12.5618 76.5278 12.8388C77.4582 13.1087 78.2501 13.4886 78.9035 13.9787C79.5569 14.4616 80.0541 15.0298 80.395 15.6832C80.743 16.3295 80.917 17.0327 80.917 17.7926V29H75.4198V26.6989H75.292C74.9653 27.3097 74.5676 27.8033 74.0988 28.1797C73.6372 28.5561 73.108 28.8295 72.5115 29C71.922 29.1705 71.2721 29.2557 70.5619 29.2557ZM72.4795 25.5483C72.9269 25.5483 73.346 25.456 73.7366 25.2713C74.1343 25.0866 74.4575 24.8203 74.7061 24.4723C74.9546 24.1243 75.0789 23.7017 75.0789 23.2045V21.8409C74.9227 21.9048 74.7558 21.9652 74.5782 22.022C74.4078 22.0788 74.2231 22.1321 74.0242 22.1818C73.8325 22.2315 73.6265 22.2777 73.4063 22.3203C73.1933 22.3629 72.9695 22.402 72.7352 22.4375C72.2806 22.5085 71.9078 22.6257 71.6166 22.7891C71.3325 22.9453 71.1194 23.1406 70.9774 23.375C70.8424 23.6023 70.7749 23.858 70.7749 24.142C70.7749 24.5966 70.9347 24.9446 71.2544 25.1861C71.574 25.4276 71.9823 25.5483 72.4795 25.5483Z" fill="#DC5C5E"/>
<path d="M98.4365 13.5459C97.8896 12.7646 97.3965 12.2129 96.957 11.8906C96.5176 11.5586 96.0439 11.3242 95.5361 11.1875C95.0283 11.041 94.4961 10.9678 93.9395 10.9678C93.1191 10.9678 92.3574 11.1533 91.6543 11.5244C90.9512 11.8857 90.3408 12.3838 89.8232 13.0186C89.3154 13.6436 88.915 14.376 88.6221 15.2158C88.3291 16.0459 88.1826 16.9297 88.1826 17.8672C88.1826 18.8145 88.3242 19.708 88.6074 20.5479C88.9004 21.3779 89.3008 22.1055 89.8086 22.7305C90.3164 23.3555 90.9219 23.8535 91.625 24.2246C92.3281 24.5859 93.0996 24.7666 93.9395 24.7666C94.5254 24.7666 95.0723 24.6738 95.5801 24.4883C96.0879 24.293 96.5469 24.0391 96.957 23.7266C97.377 23.4141 97.7432 23.0576 98.0557 22.6572C98.3682 22.2471 98.6123 21.8223 98.7881 21.3828L103.505 22.7012C103.202 23.6582 102.758 24.5469 102.172 25.3672C101.586 26.1777 100.878 26.8809 100.048 27.4766C99.2275 28.0723 98.2998 28.541 97.2646 28.8828C96.2393 29.2246 95.1309 29.3955 93.9395 29.3955C92.9336 29.3955 91.9717 29.2588 91.0537 28.9854C90.1357 28.7119 89.2764 28.3262 88.4756 27.8281C87.6846 27.3301 86.9619 26.7295 86.3076 26.0264C85.6631 25.3232 85.1113 24.5469 84.6523 23.6973C84.1934 22.8379 83.8369 21.9199 83.583 20.9434C83.3291 19.957 83.2021 18.9316 83.2021 17.8672C83.2021 16.2754 83.4805 14.7861 84.0371 13.3994C84.5938 12.0029 85.3555 10.7871 86.3223 9.75195C87.2891 8.70703 88.4219 7.88672 89.7207 7.29102C91.0293 6.68555 92.4355 6.38281 93.9395 6.38281C95.1406 6.38281 96.1514 6.53418 96.9717 6.83691C97.792 7.12988 98.6953 7.71582 99.6816 8.59473H102.963V13.5459H98.4365ZM115.502 28.1797C115.16 28.3945 114.848 28.5801 114.564 28.7363C114.281 28.8828 113.998 29 113.715 29.0879C113.432 29.1855 113.139 29.2539 112.836 29.293C112.533 29.3418 112.201 29.3662 111.84 29.3662C110.932 29.3662 110.116 29.2441 109.394 29C108.681 28.7461 108.075 28.4043 107.577 27.9746C107.089 27.5352 106.713 27.0225 106.449 26.4365C106.186 25.8408 106.054 25.1963 106.054 24.5029C106.054 23.7998 106.186 23.1504 106.449 22.5547C106.723 21.959 107.113 21.4512 107.621 21.0312C108.129 20.6016 108.749 20.2695 109.481 20.0352C110.224 19.791 111.068 19.6689 112.016 19.6689C112.709 19.6689 113.339 19.708 113.905 19.7861C114.481 19.8545 115.014 19.9424 115.502 20.0498V19.5811C115.502 19.2002 115.429 18.873 115.282 18.5996C115.136 18.3164 114.931 18.0869 114.667 17.9111C114.403 17.7256 114.086 17.5938 113.715 17.5156C113.344 17.4277 112.938 17.3838 112.499 17.3838C111.581 17.3838 110.771 17.4766 110.067 17.6621C109.374 17.8379 108.705 18.0967 108.061 18.4385L106.654 15.5967C107.65 14.9131 108.69 14.3906 109.774 14.0293C110.868 13.668 112.025 13.4873 113.246 13.4873C114.193 13.4873 115.067 13.5947 115.868 13.8096C116.679 14.0146 117.372 14.3564 117.948 14.835C118.524 15.3037 118.974 15.9189 119.296 16.6807C119.628 17.4424 119.794 18.3701 119.794 19.4639V24.9863H121.83V29H115.502V28.1797ZM112.162 25.9092C112.855 25.9092 113.485 25.7969 114.052 25.5723C114.618 25.3477 115.102 25.0742 115.502 24.752V22.8184H111.986C111.762 22.8184 111.542 22.8525 111.327 22.9209C111.112 22.9893 110.917 23.0869 110.741 23.2139C110.575 23.3408 110.438 23.4971 110.331 23.6826C110.233 23.8682 110.185 24.083 110.185 24.3271C110.185 24.7764 110.346 25.1523 110.668 25.4551C111 25.7578 111.498 25.9092 112.162 25.9092ZM124.613 6.20703H131.454V24.9863H133.798V29H124.613V24.9863H126.957V10.2207H124.613V6.20703Z" fill="#1C1917"/>
</svg>
